<svg version="1.1" id="Layer_1" xmlns="http://www.w3.org/2000/svg" xmlns:xlink="http://www.w3.org/1999/xlink" x="0px" y="0px"
	 width="100%" viewBox="0 0 240 240" enable-background="new 0 0 240 240" xml:space="preserve">
<path fill="#343434" opacity="1.000000" stroke="none" 
	d="
M166.000000,241.000000 
	C110.666672,241.000000 55.833340,241.000000 1.000007,241.000000 
	C1.000005,161.000015 1.000005,81.000015 1.000002,1.000018 
	C80.999985,1.000012 160.999969,1.000012 240.999969,1.000006 
	C240.999969,80.999985 240.999969,160.999969 240.999985,240.999969 
	C216.166672,241.000000 191.333328,241.000000 166.000000,241.000000 
M224.142868,131.066330 
	C226.612381,126.233070 229.126648,121.421974 231.536163,116.558990 
	C233.223022,113.154549 235.226379,109.810181 236.254807,106.201424 
	C237.462097,101.964958 238.739639,97.023811 234.772583,93.614082 
	C229.726486,89.276894 223.584717,87.126610 217.259216,90.562660 
	C212.407196,93.198303 207.968124,96.685356 203.655121,100.176384 
	C201.976913,101.534744 201.148163,103.942596 199.502945,106.554237 
	C197.344147,102.969757 196.155228,101.511986 195.510544,99.843872 
	C190.155090,85.986626 185.444412,71.982010 184.907089,56.901588 
	C184.470795,44.656502 174.345581,37.337494 163.568954,40.986080 
	C160.560806,42.004536 158.723282,41.299809 157.125778,38.548832 
	C151.186859,28.321737 135.848495,30.140680 130.826813,38.506287 
	C128.916748,41.688263 127.464554,45.145069 125.550240,48.984966 
	C119.211136,48.990635 112.032310,48.053246 106.965050,54.571705 
	C102.122360,60.801273 102.451591,67.513885 105.251122,74.776932 
	C102.767616,74.903542 101.131294,74.962578 99.498581,75.074333 
	C91.396500,75.628868 84.631630,82.857796 84.964378,90.646416 
	C85.070244,93.124420 84.538826,94.851082 81.556923,95.027298 
	C79.258911,95.163101 76.978516,95.679390 74.702751,96.094795 
	C65.585953,97.758919 56.460377,99.381439 47.373463,101.196625 
	C45.828957,101.505157 44.365322,102.549156 43.022743,103.481499 
	C36.787376,107.811653 37.707932,114.302094 38.303471,120.815445 
	C32.706791,121.913269 27.373074,123.000542 22.022886,123.999611 
	C13.464567,125.597748 8.329828,133.962555 11.123097,141.836426 
	C13.205731,147.707092 18.966133,150.865860 27.730400,150.847015 
	C27.972649,153.390717 28.216209,155.948196 28.480732,158.725769 
	C23.889280,159.667648 19.503197,160.463181 15.168676,161.478745 
	C6.749692,163.451355 2.573723,169.554932 4.073352,177.485153 
	C5.415762,184.583954 13.038211,189.284943 20.956345,187.775345 
	C28.594498,186.319107 36.201393,184.699677 43.834118,183.214050 
	C49.626911,182.086533 55.438694,181.056580 61.483486,179.938568 
	C61.786243,181.203506 61.948074,181.987869 62.162155,182.757706 
	C64.950859,192.785782 71.034309,196.372787 81.216438,194.128601 
	C86.421570,192.981369 91.645493,191.892624 96.897690,190.991776 
	C105.353798,189.541367 113.921761,188.627121 122.271248,186.731995 
	C125.324036,186.039078 127.084618,186.471558 129.678467,187.948822 
	C137.497345,192.401825 145.349380,197.097198 153.751068,200.149597 
	C164.060043,203.894943 174.801987,202.666824 184.708710,197.941437 
	C191.628754,194.640656 199.596573,191.707886 204.389923,186.238724 
	C210.419647,179.358887 214.810104,170.448166 217.845078,161.698257 
	C221.145020,152.184448 222.078201,141.849731 224.142868,131.066330 
z"/>
<path fill="#060606" opacity="1.000000" stroke="none" 
	d="
M224.093079,131.469635 
	C222.078201,141.849731 221.145020,152.184448 217.845078,161.698257 
	C214.810104,170.448166 210.419647,179.358887 204.389923,186.238724 
	C199.596573,191.707886 191.628754,194.640656 184.708710,197.941437 
	C174.801987,202.666824 164.060043,203.894943 153.751068,200.149597 
	C145.349380,197.097198 137.497345,192.401825 129.678467,187.948822 
	C127.084618,186.471558 125.324036,186.039078 122.271248,186.731995 
	C113.921761,188.627121 105.353798,189.541367 96.897690,190.991776 
	C91.645493,191.892624 86.421570,192.981369 81.216438,194.128601 
	C71.034309,196.372787 64.950859,192.785782 62.162155,182.757706 
	C61.948074,181.987869 61.786243,181.203506 61.483486,179.938568 
	C55.438694,181.056580 49.626911,182.086533 43.834118,183.214050 
	C36.201393,184.699677 28.594498,186.319107 20.956345,187.775345 
	C13.038211,189.284943 5.415762,184.583954 4.073352,177.485153 
	C2.573723,169.554932 6.749692,163.451355 15.168676,161.478745 
	C19.503197,160.463181 23.889280,159.667648 28.480732,158.725769 
	C28.216209,155.948196 27.972649,153.390717 27.730400,150.847015 
	C18.966133,150.865860 13.205731,147.707092 11.123097,141.836426 
	C8.329828,133.962555 13.464567,125.597748 22.022886,123.999611 
	C27.373074,123.000542 32.706791,121.913269 38.303471,120.815445 
	C37.707932,114.302094 36.787376,107.811653 43.022743,103.481499 
	C44.365322,102.549156 45.828957,101.505157 47.373463,101.196625 
	C56.460377,99.381439 65.585953,97.758919 74.702751,96.094795 
	C76.978516,95.679390 79.258911,95.163101 81.556923,95.027298 
	C84.538826,94.851082 85.070244,93.124420 84.964378,90.646416 
	C84.631630,82.857796 91.396500,75.628868 99.498581,75.074333 
	C101.131294,74.962578 102.767616,74.903542 105.251122,74.776932 
	C102.451591,67.513885 102.122360,60.801273 106.965050,54.571705 
	C112.032310,48.053246 119.211136,48.990635 125.550240,48.984966 
	C127.464554,45.145069 128.916748,41.688263 130.826813,38.506287 
	C135.848495,30.140680 151.186859,28.321737 157.125778,38.548832 
	C158.723282,41.299809 160.560806,42.004536 163.568954,40.986080 
	C174.345581,37.337494 184.470795,44.656502 184.907089,56.901588 
	C185.444412,71.982010 190.155090,85.986626 195.510544,99.843872 
	C196.155228,101.511986 197.344147,102.969757 199.502945,106.554237 
	C201.148163,103.942596 201.976913,101.534744 203.655121,100.176384 
	C207.968124,96.685356 212.407196,93.198303 217.259216,90.562660 
	C223.584717,87.126610 229.726486,89.276894 234.772583,93.614082 
	C238.739639,97.023811 237.462097,101.964958 236.254807,106.201424 
	C235.226379,109.810181 233.223022,113.154549 231.536163,116.558990 
	C229.126648,121.421974 226.612381,126.233070 224.093079,131.469635 
M75.447754,158.841904 
	C75.301788,158.945831 75.155823,159.049774 74.305054,159.118698 
	C73.856117,159.234528 73.407188,159.350372 72.414024,159.337128 
	C71.915932,159.540298 71.417839,159.743469 70.277916,159.853714 
	C69.858192,159.942307 69.438477,160.030884 68.212105,160.030441 
	C62.147999,161.318558 56.083893,162.606689 49.200336,163.754425 
	C46.803375,164.214767 44.406418,164.675110 41.238941,165.087936 
	C38.493649,165.747314 35.748352,166.406693 32.156792,166.995224 
	C27.083660,167.890091 21.884274,168.376038 17.000414,169.883942 
	C15.085001,170.475357 12.700523,173.303696 12.615658,175.206314 
	C12.481160,178.221695 15.266935,179.571976 18.375317,179.019699 
	C23.929726,178.032837 29.467592,176.952881 35.784595,175.993668 
	C38.217800,175.425064 40.651005,174.856461 43.925163,174.268127 
	C47.713459,173.549210 51.501751,172.830292 56.100258,172.159302 
	C61.099121,171.130997 66.097984,170.102692 71.881409,169.116409 
	C73.907875,168.686554 75.934334,168.256683 78.733292,167.911331 
	C81.200592,167.444016 83.667892,166.976700 86.909920,166.438477 
	C88.617195,165.997147 90.324471,165.555832 92.861374,165.189468 
	C95.933128,164.569183 99.004875,163.948883 102.582344,163.418411 
	C102.724731,163.323318 102.867111,163.228241 103.533539,163.303558 
	C103.689133,163.205933 103.844727,163.108307 104.680748,163.121887 
	C105.121048,162.999710 105.561348,162.877533 106.605171,162.911743 
	C106.979202,162.754807 107.353233,162.597885 108.487877,162.483627 
	C117.565887,160.933990 117.565887,160.933990 120.958359,168.145447 
	C118.920357,168.684692 116.934547,169.210114 114.197617,169.616562 
	C112.766418,170.000717 111.335213,170.384888 109.154503,170.708923 
	C107.766907,171.156830 106.379303,171.604752 104.264160,171.706528 
	C102.479996,172.080978 100.695839,172.455429 98.083916,172.737366 
	C95.400726,173.231049 92.717537,173.724747 89.245644,174.127945 
	C84.726814,175.058044 80.212456,176.010620 75.687592,176.910355 
	C72.675247,177.509338 70.721626,179.112885 71.308098,182.350037 
	C71.860840,185.400925 74.036591,186.884613 77.128868,186.323456 
	C82.129295,185.416046 87.090721,184.293671 92.906273,183.247528 
	C95.610741,182.739655 98.315208,182.231766 101.707367,181.827286 
	C102.153229,181.723816 102.599083,181.620346 103.497139,181.631973 
	C103.835907,181.607574 104.089584,181.447968 104.999008,181.201660 
	C106.405319,180.843292 107.811638,180.484924 109.935791,180.168945 
	C110.633675,180.019180 111.331558,179.869415 112.518921,179.767563 
	C112.890549,179.776306 113.157707,179.613525 113.211525,179.229675 
	C113.211525,179.229675 113.242569,179.345200 114.015846,179.377380 
	C115.018738,179.150909 116.021629,178.924454 117.812126,178.759506 
	C124.417564,176.932495 130.815536,175.924454 135.755829,182.453232 
	C136.519485,183.462433 137.877029,184.036072 138.990189,184.764908 
	C157.000946,196.557846 181.209930,195.732681 196.256042,182.484268 
	C206.221558,173.709457 210.605118,161.803665 212.980881,149.205002 
	C215.755295,134.492188 217.750504,119.661385 227.195374,107.155983 
	C228.679855,105.190468 228.315933,101.828934 228.806671,99.112877 
	C225.643829,98.766525 222.452560,98.013260 219.329163,98.231445 
	C217.548615,98.355820 215.483124,99.715019 214.232925,101.126617 
	C210.399078,105.455467 206.889114,110.071861 203.272110,114.591568 
	C202.457596,115.609375 201.943832,117.222084 200.911407,117.655716 
	C191.919785,121.432358 185.228851,127.496887 181.049850,136.383636 
	C180.669510,137.192429 178.328888,138.030518 177.891357,137.665375 
	C176.950500,136.880188 176.324539,135.350235 176.203979,134.065613 
	C176.107178,133.034073 176.737244,131.763260 177.399994,130.858948 
	C182.133224,124.400330 186.957596,118.008499 192.173203,111.033432 
	C183.275925,94.578911 178.229034,75.578773 176.164169,55.691128 
	C175.635239,50.596760 172.518066,47.717213 168.167801,47.944992 
	C163.651398,48.181480 160.774826,51.578403 160.985779,56.945412 
	C161.600266,72.578735 165.500336,87.496376 171.343307,101.924644 
	C171.795151,103.040359 173.584824,103.686310 174.844498,104.385078 
	C176.508286,105.308022 179.565094,105.857704 179.738632,106.935638 
	C180.300125,110.423134 177.106796,109.882484 174.906677,110.152130 
	C163.474014,111.553307 152.800659,114.922096 143.720444,122.316681 
	C141.454742,124.161789 139.199585,124.788330 137.245758,122.248505 
	C135.285416,119.700188 136.402710,117.325439 138.855148,115.965973 
	C141.870743,114.294312 141.217407,112.481430 140.282257,109.837761 
	C137.573242,102.179321 134.985764,94.454239 132.878555,86.613426 
	C130.896790,79.239433 129.548447,71.692818 127.995316,64.206825 
	C126.890533,58.881897 123.378387,55.991341 118.640228,56.668682 
	C114.017433,57.329536 111.448891,61.202515 112.034058,66.679092 
	C112.139854,67.669281 112.379387,68.644501 112.534309,69.630219 
	C115.153137,86.293098 119.640305,102.429863 126.255501,117.952850 
	C127.495483,120.862556 127.366791,123.329048 124.198814,124.535355 
	C121.123703,125.706306 119.658112,123.603813 118.692749,121.023888 
	C117.063507,116.669754 115.245750,112.379341 113.789337,107.968987 
	C111.809731,101.974297 110.127510,95.882057 108.257576,89.850304 
	C106.686768,84.783447 103.020508,82.483185 98.533585,83.644211 
	C93.966591,84.825958 91.841072,88.509323 92.800285,93.630501 
	C93.075539,95.100075 93.300034,96.597328 93.768509,98.008629 
	C94.650307,100.665100 93.308868,101.661224 90.307030,101.964684 
	C89.179703,102.251129 88.052368,102.537575 86.152573,102.720703 
	C84.414268,103.113586 82.675972,103.506470 80.150253,103.784019 
	C78.108910,104.226303 76.067566,104.668594 73.237587,105.073555 
	C70.495407,105.728386 67.753235,106.383217 64.220299,106.867035 
	C62.138897,107.267365 60.057499,107.667694 57.162975,108.032829 
	C54.897388,108.415207 52.255844,108.206352 50.469425,109.342293 
	C48.593529,110.535126 47.536896,113.016365 46.122234,114.934555 
	C48.094929,116.256104 49.942310,118.337158 52.074989,118.689018 
	C54.278515,119.052574 56.759277,117.735794 59.951809,117.177879 
	C62.620678,116.705551 65.289551,116.233223 68.670090,115.769554 
	C70.469543,115.402634 72.268990,115.035713 74.930450,114.541695 
	C78.984428,113.721764 83.038414,112.901833 87.589577,112.145065 
	C87.728043,112.051605 87.866516,111.958145 88.694939,111.932594 
	C89.791687,111.665863 90.888435,111.399124 92.807693,111.221390 
	C98.957420,110.202293 97.280869,115.053680 98.464996,118.201141 
	C95.684059,118.913063 93.333786,119.514740 90.173859,120.031349 
	C83.751686,121.310776 77.329521,122.590210 70.089737,123.801079 
	C66.711571,124.523293 63.333405,125.245514 59.119106,125.860794 
	C54.672569,126.703575 50.226028,127.546356 44.942448,128.487366 
	C40.630520,129.360382 36.318588,130.233398 31.173988,131.055710 
	C28.401440,131.522400 25.309717,131.393524 22.961481,132.651962 
	C21.212320,133.589340 19.264612,136.523331 19.554590,138.195374 
	C19.815207,139.698120 23.018808,141.722366 24.897152,141.694458 
	C28.623283,141.639069 32.330761,140.328354 36.799835,139.687073 
	C37.272327,139.527191 37.744823,139.367325 38.473740,139.374878 
	C38.709396,139.381653 38.868214,139.274490 39.740620,139.137360 
	C42.231518,138.621140 44.722412,138.104919 48.045498,137.461685 
	C52.381001,136.637405 56.716503,135.813110 61.857342,135.064072 
	C65.257950,134.336517 68.658562,133.608963 72.860855,132.953430 
	C79.258049,131.702637 85.655243,130.451843 92.891838,129.208786 
	C102.875885,127.840080 103.056473,127.938026 103.762093,135.246460 
	C102.536667,135.607162 101.283813,135.975952 99.309807,136.180420 
	C97.185646,136.693481 95.061478,137.206558 92.162415,137.737915 
	C90.439034,138.151657 88.715660,138.565384 86.257133,138.900116 
	C84.835808,139.228439 83.414482,139.556747 81.153694,139.744537 
	C77.732010,140.432526 74.310326,141.120529 70.083488,141.780930 
	C67.742371,142.278168 65.401253,142.775406 62.264179,143.218140 
	C56.667671,144.286575 51.071159,145.355011 44.747829,146.596130 
	C43.433765,146.778336 42.062542,146.781464 40.817219,147.179016 
	C37.991997,148.080872 35.160767,149.504303 36.213932,153.060211 
	C37.170807,156.291031 39.674244,157.707626 43.259823,156.548492 
	C45.450527,155.840286 47.751793,155.474075 50.834770,155.005020 
	C55.639473,154.078491 60.444176,153.151962 66.054863,152.217819 
	C68.692719,151.702438 71.330574,151.187057 74.759102,150.654724 
	C78.857086,149.826706 82.955070,148.998672 87.717972,148.204437 
	C88.146591,148.098129 88.575218,147.991806 89.716667,147.999619 
	C90.613106,147.717255 91.509537,147.434891 93.140175,147.182800 
	C94.092010,146.982574 95.043854,146.782333 96.602615,146.638596 
	C97.768410,146.336502 98.934212,146.034409 100.988174,145.741989 
	C109.270210,144.220795 109.489510,144.352493 111.066811,152.030289 
	C108.052727,152.741287 105.024673,153.455566 101.209267,154.038300 
	C98.450958,154.634384 95.692650,155.230484 92.116417,155.725006 
	C89.056923,156.440170 85.997429,157.155334 82.169434,157.787506 
	C80.441895,158.158676 78.714355,158.529861 76.472137,158.749420 
	C76.306221,158.816193 76.140312,158.882965 75.447754,158.841904 
M152.678314,54.883030 
	C152.554718,53.394039 152.427353,51.905346 152.309219,50.415920 
	C152.256760,49.754295 152.223129,49.091179 152.180603,48.428761 
	C151.818924,42.795128 148.438080,39.273548 143.609009,39.500244 
	C138.814957,39.725296 135.713150,43.130135 135.781067,48.603817 
	C135.990814,65.510887 139.256607,81.901566 144.537735,97.913643 
	C145.873245,101.962776 147.450027,105.932327 148.841248,109.734276 
	C154.159576,108.207039 158.907822,106.843498 163.890076,105.412773 
	C157.353424,89.561829 153.639236,72.989494 152.678314,54.883030 
z"/>
<path fill="#FAFAFA" opacity="1.000000" stroke="none" 
	d="
M114.948738,169.735535 
	C116.934547,169.210114 118.920357,168.684692 120.958359,168.145447 
	C117.565887,160.933990 117.565887,160.933990 107.804138,162.360260 
	C106.747490,162.409714 106.374573,162.582535 106.001648,162.755356 
	C105.561348,162.877533 105.121048,162.999710 104.245720,162.895691 
	C103.543625,162.824066 103.276566,162.978622 103.009491,163.133179 
	C102.867111,163.228241 102.724731,163.323318 102.307281,162.967896 
	C103.237320,159.729691 98.136696,156.968887 101.996620,154.169861 
	C105.024673,153.455566 108.052727,152.741287 111.066811,152.030289 
	C109.489510,144.352493 109.270210,144.220795 100.539963,145.365326 
	C100.071495,142.107346 100.051224,139.226028 100.030960,136.344727 
	C101.283813,135.975952 102.536667,135.607162 103.762093,135.246460 
	C103.056473,127.938026 102.875885,127.840080 92.344261,128.903610 
	C89.182190,125.995758 88.523560,123.205574 90.983513,120.116409 
	C93.333786,119.514740 95.684059,118.913063 98.464996,118.201141 
	C97.280869,115.053680 98.957420,110.202293 92.396080,110.752266 
	C91.658119,107.547409 91.331779,104.811668 91.005440,102.075935 
	C93.308868,101.661224 94.650307,100.665100 93.768509,98.008629 
	C93.300034,96.597328 93.075539,95.100075 92.800285,93.630501 
	C91.841072,88.509323 93.966591,84.825958 98.533585,83.644211 
	C103.020508,82.483185 106.686768,84.783447 108.257576,89.850304 
	C110.127510,95.882057 111.809731,101.974297 113.789337,107.968987 
	C115.245750,112.379341 117.063507,116.669754 118.692749,121.023888 
	C119.658112,123.603813 121.123703,125.706306 124.198814,124.535355 
	C127.366791,123.329048 127.495483,120.862556 126.255501,117.952850 
	C119.640305,102.429863 115.153137,86.293098 112.534309,69.630219 
	C112.379387,68.644501 112.139854,67.669281 112.034058,66.679092 
	C111.448891,61.202515 114.017433,57.329536 118.640228,56.668682 
	C123.378387,55.991341 126.890533,58.881897 127.995316,64.206825 
	C129.548447,71.692818 130.896790,79.239433 132.878555,86.613426 
	C134.985764,94.454239 137.573242,102.179321 140.282257,109.837761 
	C141.217407,112.481430 141.870743,114.294312 138.855148,115.965973 
	C136.402710,117.325439 135.285416,119.700188 137.245758,122.248505 
	C139.199585,124.788330 141.454742,124.161789 143.720444,122.316681 
	C152.800659,114.922096 163.474014,111.553307 174.906677,110.152130 
	C177.106796,109.882484 180.300125,110.423134 179.738632,106.935638 
	C179.565094,105.857704 176.508286,105.308022 174.844498,104.385078 
	C173.584824,103.686310 171.795151,103.040359 171.343307,101.924644 
	C165.500336,87.496376 161.600266,72.578735 160.985779,56.945412 
	C160.774826,51.578403 163.651398,48.181480 168.167801,47.944992 
	C172.518066,47.717213 175.635239,50.596760 176.164169,55.691128 
	C178.229034,75.578773 183.275925,94.578911 192.173203,111.033432 
	C186.957596,118.008499 182.133224,124.400330 177.399994,130.858948 
	C176.737244,131.763260 176.107178,133.034073 176.203979,134.065613 
	C176.324539,135.350235 176.950500,136.880188 177.891357,137.665375 
	C178.328888,138.030518 180.669510,137.192429 181.049850,136.383636 
	C185.228851,127.496887 191.919785,121.432358 200.911407,117.655716 
	C201.943832,117.222084 202.457596,115.609375 203.272110,114.591568 
	C206.889114,110.071861 210.399078,105.455467 214.232925,101.126617 
	C215.483124,99.715019 217.548615,98.355820 219.329163,98.231445 
	C222.452560,98.013260 225.643829,98.766525 228.806671,99.112877 
	C228.315933,101.828934 228.679855,105.190468 227.195374,107.155983 
	C217.750504,119.661385 215.755295,134.492188 212.980881,149.205002 
	C210.605118,161.803665 206.221558,173.709457 196.256042,182.484268 
	C181.209930,195.732681 157.000946,196.557846 138.990189,184.764908 
	C137.877029,184.036072 136.519485,183.462433 135.755829,182.453232 
	C130.815536,175.924454 124.417564,176.932495 117.409027,178.351883 
	C116.320190,175.208023 115.634468,172.471771 114.948738,169.735535 
M160.136581,171.702698 
	C155.386063,169.355301 150.635559,167.007904 145.259491,164.351410 
	C147.776199,162.005875 149.295074,160.906006 150.355347,159.467987 
	C150.879440,158.757156 150.869476,157.285263 150.490463,156.427597 
	C150.294952,155.985168 148.469055,155.692078 147.881577,156.083878 
	C142.922516,159.391174 137.957977,162.720764 133.313583,166.441238 
	C132.478912,167.109879 132.445648,170.217728 133.247604,171.085251 
	C134.046799,171.949768 136.564682,171.907928 137.949417,171.339218 
	C139.120590,170.858231 139.749008,169.055679 140.703659,167.717361 
	C142.648712,169.537140 143.787247,170.729858 145.053391,171.766754 
	C155.102905,179.996902 166.260513,183.234543 178.944901,178.982498 
	C190.856903,174.989395 197.378159,166.411423 199.168091,154.210556 
	C199.442169,152.342316 198.191910,150.250458 197.646667,148.262024 
	C196.198929,149.697037 194.051880,150.874130 193.412628,152.607346 
	C187.610077,168.339691 177.241241,174.596161 160.136581,171.702698 
z"/>
<path fill="#F8F8F8" opacity="1.000000" stroke="none" 
	d="
M152.711853,55.340275 
	C153.639236,72.989494 157.353424,89.561829 163.890076,105.412773 
	C158.907822,106.843498 154.159576,108.207039 148.841248,109.734276 
	C147.450027,105.932327 145.873245,101.962776 144.537735,97.913643 
	C139.256607,81.901566 135.990814,65.510887 135.781067,48.603817 
	C135.713150,43.130135 138.814957,39.725296 143.609009,39.500244 
	C148.438080,39.273548 151.818924,42.795128 152.180603,48.428761 
	C152.223129,49.091179 152.256760,49.754295 152.309219,50.415920 
	C152.427353,51.905346 152.554718,53.394039 152.711853,55.340275 
z"/>
<path fill="#558EC0" opacity="1.000000" stroke="none" 
	d="
M35.012375,175.911850 
	C29.467592,176.952881 23.929726,178.032837 18.375317,179.019699 
	C15.266935,179.571976 12.481160,178.221695 12.615658,175.206314 
	C12.700523,173.303696 15.085001,170.475357 17.000414,169.883942 
	C21.884274,168.376038 27.083660,167.890091 32.716148,167.345398 
	C34.757374,170.243469 36.931786,172.644958 35.012375,175.911850 
z"/>
<path fill="#5DAFDB" opacity="1.000000" stroke="none" 
	d="
M92.068619,183.262085 
	C87.090721,184.293671 82.129295,185.416046 77.128868,186.323456 
	C74.036591,186.884613 71.860840,185.400925 71.308098,182.350037 
	C70.721626,179.112885 72.675247,177.509338 75.687592,176.910355 
	C80.212456,176.010620 84.726814,175.058044 89.626358,174.561813 
	C90.694252,177.751144 91.381432,180.506622 92.068619,183.262085 
z"/>
<path fill="#F4E9C8" opacity="1.000000" stroke="none" 
	d="
M90.578690,120.073883 
	C88.523560,123.205574 89.182190,125.995758 91.924561,128.899750 
	C85.655243,130.451843 79.258049,131.702637 72.591827,132.616745 
	C74.685539,128.999542 72.210754,126.533157 70.907349,123.869637 
	C77.329521,122.590210 83.751686,121.310776 90.578690,120.073883 
z"/>
<path fill="#9ABCD9" opacity="1.000000" stroke="none" 
	d="
M71.096848,169.074371 
	C66.097984,170.102692 61.099121,171.130997 55.319801,172.053421 
	C53.032825,169.263290 51.526306,166.579056 50.019787,163.894806 
	C56.083893,162.606689 62.147999,161.318558 68.554840,160.446594 
	C67.457787,164.181915 67.321808,167.151886 71.096848,169.074371 
z"/>
<path fill="#9CC574" opacity="1.000000" stroke="none" 
	d="
M45.474651,146.423447 
	C51.071159,145.355011 56.667671,144.286575 62.654297,143.601898 
	C63.779236,146.732254 64.514053,149.478851 65.248878,152.225433 
	C60.444176,153.151962 55.639473,154.078491 50.256241,154.672806 
	C48.276691,151.701538 46.875671,149.062500 45.474651,146.423447 
z"/>
<path fill="#F0B824" opacity="1.000000" stroke="none" 
	d="
M36.045948,139.536469 
	C32.330761,140.328354 28.623283,141.639069 24.897152,141.694458 
	C23.018808,141.722366 19.815207,139.698120 19.554590,138.195374 
	C19.264612,136.523331 21.212320,133.589340 22.961481,132.651962 
	C25.309717,131.393524 28.401440,131.522400 31.632818,131.417343 
	C33.409748,134.364807 34.727848,136.950638 36.045948,139.536469 
z"/>
<path fill="#F5D171" opacity="1.000000" stroke="none" 
	d="
M45.779488,128.389130 
	C50.226028,127.546356 54.672569,126.703575 59.518211,126.245255 
	C59.669868,128.397659 59.422421,130.165604 59.174973,131.933548 
	C62.332935,131.396255 61.428280,133.354843 61.052006,134.988831 
	C56.716503,135.813110 52.381001,136.637405 47.481514,137.138687 
	C46.538185,134.006836 46.158836,131.197983 45.779488,128.389130 
z"/>
<path fill="#F5DD9D" opacity="1.000000" stroke="none" 
	d="
M61.454674,135.026459 
	C61.428280,133.354843 62.332935,131.396255 59.174973,131.933548 
	C59.422421,130.165604 59.669868,128.397659 59.936279,126.298721 
	C63.333405,125.245514 66.711571,124.523293 70.498543,123.835358 
	C72.210754,126.533157 74.685539,128.999542 72.190994,132.580750 
	C68.658562,133.608963 65.257950,134.336517 61.454674,135.026459 
z"/>
<path fill="#F6C84C" opacity="1.000000" stroke="none" 
	d="
M45.360970,128.438248 
	C46.158836,131.197983 46.538185,134.006836 47.065422,137.202194 
	C44.722412,138.104919 42.231518,138.621140 39.218189,139.077545 
	C38.515717,139.029037 38.356236,139.092285 38.217316,139.207458 
	C37.744823,139.367325 37.272327,139.527191 36.422890,139.611771 
	C34.727848,136.950638 33.409748,134.364807 32.049152,131.442688 
	C36.318588,130.233398 40.630520,129.360382 45.360970,128.438248 
z"/>
<path fill="#DE5358" opacity="1.000000" stroke="none" 
	d="
M59.118763,117.154099 
	C56.759277,117.735794 54.278515,119.052574 52.074989,118.689018 
	C49.942310,118.337158 48.094929,116.256104 46.122238,114.934555 
	C47.536896,113.016365 48.593529,110.535126 50.469425,109.342293 
	C52.255844,108.206352 54.897388,108.415207 57.408409,108.291092 
	C58.142155,111.417595 58.630459,114.285851 59.118763,117.154099 
z"/>
<path fill="#C4D8AF" opacity="1.000000" stroke="none" 
	d="
M70.888641,141.808502 
	C74.310326,141.120529 77.732010,140.432526 81.440796,140.067322 
	C81.727890,142.655960 81.727890,144.921799 81.727890,147.442535 
	C83.554428,147.532410 85.274277,147.617035 87.051834,147.813507 
	C87.109528,147.925354 87.053062,148.170654 87.053062,148.170654 
	C82.955070,148.998672 78.857086,149.826706 74.187515,150.367157 
	C72.706841,147.322556 71.797745,144.565536 70.888641,141.808502 
z"/>
<path fill="#86BC53" opacity="1.000000" stroke="none" 
	d="
M45.111240,146.509796 
	C46.875671,149.062500 48.276691,151.701538 49.840561,154.647430 
	C47.751793,155.474075 45.450527,155.840286 43.259823,156.548492 
	C39.674244,157.707626 37.170807,156.291031 36.213932,153.060211 
	C35.160767,149.504303 37.991997,148.080872 40.817219,147.179016 
	C42.062542,146.781464 43.433765,146.778336 45.111240,146.509796 
z"/>
<path fill="#E1E7EC" opacity="1.000000" stroke="none" 
	d="
M101.602943,154.104080 
	C98.136696,156.968887 103.237320,159.729691 102.054420,162.923004 
	C99.004875,163.948883 95.933128,164.569183 92.417694,164.834976 
	C92.294128,161.595840 92.614235,158.711212 92.934341,155.826569 
	C95.692650,155.230484 98.450958,154.634384 101.602943,154.104080 
z"/>
<path fill="#82ACD1" opacity="1.000000" stroke="none" 
	d="
M49.610062,163.824615 
	C51.526306,166.579056 53.032825,169.263290 54.914696,172.029449 
	C51.501751,172.830292 47.713459,173.549210 43.449524,173.894547 
	C42.652409,170.725800 42.330936,167.930634 42.009460,165.135468 
	C44.406418,164.675110 46.803375,164.214767 49.610062,163.824615 
z"/>
<path fill="#E5787C" opacity="1.000000" stroke="none" 
	d="
M59.535286,117.165985 
	C58.630459,114.285851 58.142155,111.417595 57.814972,108.308685 
	C60.057499,107.667694 62.138897,107.267365 64.773560,107.267990 
	C66.204018,110.366272 67.081215,113.063583 67.958420,115.760895 
	C65.289551,116.233223 62.620678,116.705551 59.535286,117.165985 
z"/>
<path fill="#95C7E3" opacity="1.000000" stroke="none" 
	d="
M92.487442,183.254807 
	C91.381432,180.506622 90.694252,177.751144 90.020706,174.607056 
	C92.717537,173.724747 95.400726,173.231049 98.610031,173.083984 
	C99.763985,176.195038 100.391830,178.959457 101.019676,181.723877 
	C98.315208,182.231766 95.610741,182.739655 92.487442,183.254807 
z"/>
<path fill="#B5D397" opacity="1.000000" stroke="none" 
	d="
M70.486069,141.794708 
	C71.797745,144.565536 72.706841,147.322556 73.792183,150.375641 
	C71.330574,151.187057 68.692719,151.702438 65.651871,152.221619 
	C64.514053,149.478851 63.779236,146.732254 63.052277,143.629150 
	C65.401253,142.775406 67.742371,142.278168 70.486069,141.794708 
z"/>
<path fill="#EDBABB" opacity="1.000000" stroke="none" 
	d="
M87.092392,112.081902 
	C83.038414,112.901833 78.984428,113.721764 74.553246,114.261742 
	C74.126106,111.024818 74.076164,108.067848 74.026222,105.110878 
	C76.067566,104.668594 78.108910,104.226303 80.703400,104.218460 
	C82.558617,107.634499 80.532181,113.230820 87.092392,112.081902 
z"/>
<path fill="#D1E2EF" opacity="1.000000" stroke="none" 
	d="
M92.525375,155.775787 
	C92.614235,158.711212 92.294128,161.595840 92.002884,164.797485 
	C90.324471,165.555832 88.617195,165.997147 86.407883,166.135071 
	C84.916542,163.177948 83.927238,160.524216 82.937927,157.870499 
	C85.997429,157.155334 89.056923,156.440170 92.525375,155.775787 
z"/>
<path fill="#C5D8E8" opacity="1.000000" stroke="none" 
	d="
M82.553680,157.829010 
	C83.927238,160.524216 84.916542,163.177948 86.020515,166.170532 
	C83.667892,166.976700 81.200592,167.444016 78.104736,167.594864 
	C76.984444,164.852478 76.492699,162.426559 76.222702,159.874268 
	C76.625229,159.465591 76.806023,159.183319 76.986816,158.901031 
	C78.714355,158.529861 80.441895,158.158676 82.553680,157.829010 
z"/>
<path fill="#E99A9C" opacity="1.000000" stroke="none" 
	d="
M73.631905,105.092216 
	C74.076164,108.067848 74.126106,111.024818 74.122238,114.325287 
	C72.268990,115.035713 70.469543,115.402634 68.314255,115.765228 
	C67.081215,113.063583 66.204018,110.366272 65.168930,107.353500 
	C67.753235,106.383217 70.495407,105.728386 73.631905,105.092216 
z"/>
<path fill="#E2ECD7" opacity="1.000000" stroke="none" 
	d="
M89.003845,147.885498 
	C88.575218,147.991806 88.146591,148.098129 87.385513,148.187546 
	C87.053062,148.170654 87.109528,147.925354 87.050415,147.391373 
	C86.991631,144.231308 86.991951,141.605209 86.992279,138.979126 
	C88.715660,138.565384 90.439034,138.151657 92.679840,138.078339 
	C94.130074,141.139862 95.062881,143.860977 95.995697,146.582092 
	C95.043854,146.782333 94.092010,146.982574 92.406799,147.112488 
	C90.783562,147.323303 89.893707,147.604401 89.003845,147.885498 
z"/>
<path fill="#76A6D1" opacity="1.000000" stroke="none" 
	d="
M41.624203,165.111694 
	C42.330936,167.930634 42.652409,170.725800 43.029045,173.904419 
	C40.651005,174.856461 38.217800,175.425064 35.398483,175.952759 
	C36.931786,172.644958 34.757374,170.243469 33.139282,167.380829 
	C35.748352,166.406693 38.493649,165.747314 41.624203,165.111694 
z"/>
<path fill="#B4D1E6" opacity="1.000000" stroke="none" 
	d="
M76.000961,160.000641 
	C76.492699,162.426559 76.984444,164.852478 77.718491,167.552612 
	C75.934334,168.256683 73.907875,168.686554 71.489128,169.095398 
	C67.321808,167.151886 67.457787,164.181915 68.958160,160.491104 
	C69.438477,160.030884 69.858192,159.942307 70.872208,159.952484 
	C71.963753,159.856247 72.461006,159.661224 72.958252,159.466217 
	C73.407188,159.350372 73.856117,159.234528 74.760651,159.315842 
	C75.414009,159.716461 75.651512,159.848358 75.946800,159.931656 
	C75.964844,159.954666 76.000961,160.000641 76.000961,160.000641 
z"/>
<path fill="#D0E2F0" opacity="1.000000" stroke="none" 
	d="
M104.991699,172.052673 
	C106.379303,171.604752 107.766907,171.156830 109.673386,171.083832 
	C111.209038,174.087570 112.225807,176.716385 113.242569,179.345200 
	C113.242569,179.345200 113.211525,179.229675 113.026688,179.244110 
	C112.513527,179.310944 112.242729,179.464630 112.029449,179.719635 
	C111.331558,179.869415 110.633675,180.019180 109.201920,180.073563 
	C104.272232,178.668457 104.195465,175.552017 104.991699,172.052673 
z"/>
<path fill="#B3D1E6" opacity="1.000000" stroke="none" 
	d="
M104.627930,171.879593 
	C104.195465,175.552017 104.272232,178.668457 108.843002,180.052368 
	C107.811638,180.484924 106.405319,180.843292 104.406929,181.147949 
	C103.496323,181.122284 103.239685,181.263168 103.044937,181.516876 
	C102.599083,181.620346 102.153229,181.723816 101.363525,181.775574 
	C100.391830,178.959457 99.763985,176.195038 99.023911,173.130249 
	C100.695839,172.455429 102.479996,172.080978 104.627930,171.879593 
z"/>
<path fill="#EFD4D4" opacity="1.000000" stroke="none" 
	d="
M87.340988,112.113480 
	C80.532181,113.230820 82.558617,107.634499 81.097107,104.276123 
	C82.675972,103.506470 84.414268,103.113586 86.553696,103.198158 
	C87.304886,106.405304 87.654938,109.134995 88.004990,111.864685 
	C87.866516,111.958145 87.728043,112.051605 87.340988,112.113480 
z"/>
<path fill="#EAE8E4" opacity="1.000000" stroke="none" 
	d="
M96.299156,146.610352 
	C95.062881,143.860977 94.130074,141.139862 93.067291,138.069183 
	C95.061478,137.206558 97.185646,136.693481 99.670380,136.262573 
	C100.051224,139.226028 100.071495,142.107346 100.095886,145.360474 
	C98.934212,146.034409 97.768410,146.336502 96.299156,146.610352 
z"/>
<path fill="#DBE5C6" opacity="1.000000" stroke="none" 
	d="
M86.624710,138.939621 
	C86.991951,141.605209 86.991631,144.231308 86.992722,147.279526 
	C85.274277,147.617035 83.554428,147.532410 81.727890,147.442535 
	C81.727890,144.921799 81.727890,142.655960 81.860519,140.137589 
	C83.414482,139.556747 84.835808,139.228439 86.624710,138.939621 
z"/>
<path fill="#EDEAE6" opacity="1.000000" stroke="none" 
	d="
M88.349960,111.898636 
	C87.654938,109.134995 87.304886,106.405304 86.939934,103.249817 
	C88.052368,102.537575 89.179703,102.251129 90.656235,102.020309 
	C91.331779,104.811668 91.658119,107.547409 91.984825,110.707764 
	C90.888435,111.399124 89.791687,111.665863 88.349960,111.898636 
z"/>
<path fill="#E0E7ED" opacity="1.000000" stroke="none" 
	d="
M113.629211,179.361298 
	C112.225807,176.716385 111.209038,174.087570 110.048141,171.113907 
	C111.335213,170.384888 112.766418,170.000717 114.573181,169.676056 
	C115.634468,172.471771 116.320190,175.208023 117.015221,178.321121 
	C116.021629,178.924454 115.018738,179.150909 113.629211,179.361298 
z"/>
<path fill="#DBE5C6" opacity="1.000000" stroke="none" 
	d="
M89.360260,147.942566 
	C89.893707,147.604401 90.783562,147.323303 92.039696,147.097351 
	C91.509537,147.434891 90.613106,147.717255 89.360260,147.942566 
z"/>
<path fill="#9ABCD9" opacity="1.000000" stroke="none" 
	d="
M72.686142,159.401672 
	C72.461006,159.661224 71.963753,159.856247 71.193123,159.998962 
	C71.417839,159.743469 71.915932,159.540298 72.686142,159.401672 
z"/>
<path fill="#F0B824" opacity="1.000000" stroke="none" 
	d="
M38.345528,139.291168 
	C38.356236,139.092285 38.515717,139.029037 38.822975,139.035553 
	C38.868214,139.274490 38.709396,139.381653 38.345528,139.291168 
z"/>
<path fill="#E1E7EC" opacity="1.000000" stroke="none" 
	d="
M106.303406,162.833557 
	C106.374573,162.582535 106.747490,162.409714 107.423836,162.338928 
	C107.353233,162.597885 106.979202,162.754807 106.303406,162.833557 
z"/>
<path fill="#E1E7EC" opacity="1.000000" stroke="none" 
	d="
M103.271515,163.218384 
	C103.276566,162.978622 103.543625,162.824066 103.905502,162.840088 
	C103.844727,163.108307 103.689133,163.205933 103.271515,163.218384 
z"/>
<path fill="#B4D1E6" opacity="1.000000" stroke="none" 
	d="
M76.729477,158.825226 
	C76.806023,159.183319 76.625229,159.465591 76.222702,159.874268 
	C76.000961,160.000641 75.964844,159.954666 75.967659,159.692993 
	C75.970474,159.431335 75.974396,158.949738 75.974396,158.949738 
	C76.140312,158.882965 76.306221,158.816193 76.729477,158.825226 
z"/>
<path fill="#9ABCD9" opacity="1.000000" stroke="none" 
	d="
M75.711075,158.895813 
	C75.974396,158.949738 75.970474,159.431335 75.949615,159.669983 
	C75.651512,159.848358 75.414009,159.716461 75.113052,159.333344 
	C75.155823,159.049774 75.301788,158.945831 75.711075,158.895813 
z"/>
<path fill="#E0E7ED" opacity="1.000000" stroke="none" 
	d="
M112.274185,179.743607 
	C112.242729,179.464630 112.513527,179.310944 113.081123,179.268906 
	C113.157707,179.613525 112.890549,179.776306 112.274185,179.743607 
z"/>
<path fill="#95C7E3" opacity="1.000000" stroke="none" 
	d="
M103.271042,181.574432 
	C103.239685,181.263168 103.496323,181.122284 104.036514,181.123703 
	C104.089584,181.447968 103.835907,181.607574 103.271042,181.574432 
z"/>
<path fill="#0B0B0B" opacity="1.000000" stroke="none" 
	d="
M160.536545,171.783813 
	C177.241241,174.596161 187.610077,168.339691 193.412628,152.607346 
	C194.051880,150.874130 196.198929,149.697037 197.646667,148.262024 
	C198.191910,150.250458 199.442169,152.342316 199.168091,154.210556 
	C197.378159,166.411423 190.856903,174.989395 178.944901,178.982498 
	C166.260513,183.234543 155.102905,179.996902 145.053391,171.766754 
	C143.787247,170.729858 142.648712,169.537140 140.703659,167.717361 
	C139.749008,169.055679 139.120590,170.858231 137.949417,171.339218 
	C136.564682,171.907928 134.046799,171.949768 133.247604,171.085251 
	C132.445648,170.217728 132.478912,167.109879 133.313583,166.441238 
	C137.957977,162.720764 142.922516,159.391174 147.881577,156.083878 
	C148.469055,155.692078 150.294952,155.985168 150.490463,156.427597 
	C150.869476,157.285263 150.879440,158.757156 150.355347,159.467987 
	C149.295074,160.906006 147.776199,162.005875 145.259491,164.351410 
	C150.635559,167.007904 155.386063,169.355301 160.536545,171.783813 
z"/>
</svg>