<?xml version="1.0" encoding="UTF-8"?>
<svg width="60" height="60" viewBox="0 0 60 60" fill="none" xmlns="http://www.w3.org/2000/svg">
  <rect width="60" height="60" rx="12" fill="#0077B5"/>
  <path d="M15 20h8v20h-8V20zm4-6c2.5 0 4.5 2 4.5 4.5S21.5 23 19 23s-4.5-2-4.5-4.5S16.5 14 19 14z" fill="white"/>
  <path d="M27 20h7.5v2.7h.1c1-1.9 3.5-3.9 7.2-3.9 7.7 0 9.1 5.1 9.1 11.7V40h-7.6v-8.4c0-2.8-.1-6.4-3.9-6.4-3.9 0-4.5 3.1-4.5 6.2V40H27V20z" fill="white"/>
  <circle cx="45" cy="15" r="8" fill="#FF6B35"/>
  <text x="45" y="19" text-anchor="middle" fill="white" font-family="Arial, sans-serif" font-size="8" font-weight="bold">HR</text>
</svg>
